<svg width="14" height="24" viewBox="0 0 14 24" fill="none" xmlns="http://www.w3.org/2000/svg">
<path d="M2.72298 0.474935L13.3932 11.1135C13.5198 11.2401 13.6093 11.3773 13.6617 11.5251C13.7149 11.6728 13.7415 11.8311 13.7415 12C13.7415 12.1689 13.7149 12.3272 13.6617 12.4749C13.6093 12.6227 13.5198 12.7599 13.3932 12.8865L2.72299 23.5567C2.42747 23.8522 2.05808 24 1.61481 24C1.17154 24 0.791589 23.8417 0.474966 23.5251C0.158343 23.2084 3.13698e-05 22.8391 3.13329e-05 22.4169C3.12959e-05 21.9947 0.158343 21.6253 0.474966 21.3087L9.78367 12L0.474964 2.69129C0.179449 2.39578 0.0316915 2.03187 0.0316915 1.59958C0.0316915 1.16644 0.190003 0.791558 0.506625 0.474935C0.823248 0.158313 1.19264 1.09705e-06 1.61481 1.06015e-06C2.03697 1.02324e-06 2.40636 0.158313 2.72298 0.474935Z" fill="#B0B0B0" fill-opacity="0.5"/>
</svg>
